<svg preserveAspectRatio="xMidYMid meet" data-bbox="3.037 4.171 629.153 152.799" viewBox="3.037 4.171 629.153 152.799" xmlns="http://www.w3.org/2000/svg" data-type="color" role="img" aria-labelledby="comp-kjts3ze92-svgtitle"><defs><style>#comp-kjts3ze92 svg [data-color="1"] {fill: #F2EEEB;}</style></defs><title id="comp-kjts3ze92-svgtitle"></title>
    <g>
        <path d="M47.51 24.35c.12.82.28 1.63.5 2.41l.03.13a20.82 20.82 0 0 0 2.08 4.9c.03.05.06.11.09.16.78 1.31 1.72 2.51 2.76 3.62a9.568 9.568 0 0 1 4.02-7.71c.45-.32 1.07-.32 1.52 0a9.568 9.568 0 0 1 4.02 7.71c1.04-1.11 1.98-2.31 2.76-3.62.03-.05.06-.11.09-.16.89-1.52 1.59-3.16 2.08-4.9l.03-.13c.21-.79.37-1.59.5-2.41l.06-.41c.11-.86.17-1.73.18-2.61v-.08c0-6.88-3.32-12.99-8.44-16.81-.84-.63-2.05-.09-2.17.96-.74 6.75-4.69 12.52-10.28 15.8l-.07.13c0 .89.07 1.76.18 2.61l.06.41z" fill="#ffffff" data-color="1"></path>
        <path d="M14.08 91.52c-.77-.06-1.42.55-1.41 1.32.01.73.02 1.46.02 2.19 0 6.79-.27 13.53-.78 20.19a269.1 269.1 0 0 1-3.12 25.29c-.13.75.4 1.45 1.16 1.52 4.33.39 8.68.72 13.04 1.01 1.5.1 2.85-.96 3.11-2.44a268.125 268.125 0 0 0 3.92-47.96l-.02-.02c-5.33-.28-10.63-.66-15.92-1.1z" fill="#ffffff" data-color="1"></path>
        <path d="M102.82 95.03c0-.73.01-1.46.02-2.19.01-.77-.64-1.38-1.41-1.32-5.29.44-10.59.82-15.92 1.09l-.02.02c-.07 8.02.22 15.96.85 23.81.65 8.09 1.67 16.07 3.03 23.94a3.2 3.2 0 0 0 3.36 2.63c4.29-.28 8.57-.61 12.83-.99.76-.07 1.29-.77 1.16-1.51a262.63 262.63 0 0 1-3.12-25.29c-.51-6.66-.78-13.4-.78-20.19z" fill="#ffffff" data-color="1"></path>
        <path d="M61.56 51.05v5.7c0 1.46 1.19 2.64 2.65 2.63 1.21-.01 2.41-.03 3.62-.05 3.89-.07 7.76-.2 11.63-.35 2.14-.09 4.27-.18 6.4-.29 1.25-.06 2.26-1.01 2.44-2.24.31-2.11.65-4.21 1-6.31.33-1.96.69-3.92 1.06-5.87a1.17 1.17 0 0 0-1.21-1.39c-2.8.17-5.61.31-8.42.43-3.38.14-6.76.28-10.16.36-3 .07-6.01.09-9.01.11v7.27z" fill="#ffffff" data-color="1"></path>
        <path d="M27.21 56.44c.18 1.23 1.2 2.18 2.44 2.24 2.18.11 4.37.21 6.56.29 3.87.16 7.74.28 11.63.35 1.21.02 2.41.04 3.62.05 1.46.02 2.65-1.17 2.65-2.63V43.8c-3.01-.02-6.02-.04-9.02-.11-3.4-.08-6.78-.22-10.16-.36-2.87-.12-5.73-.27-8.58-.44-.76-.04-1.36.63-1.21 1.38.38 1.95.73 3.9 1.06 5.87.37 2.09.7 4.19 1.01 6.3z" fill="#ffffff" data-color="1"></path>
        <path d="M104.44 65.82c-5.8.51-11.63.94-17.48 1.26-2.67.15-5.35.25-8.03.36-4.11.16-8.23.28-12.36.35-1.67.03-3.33.05-5 .06-1.27.01-2.53.05-3.8.05-1.22 0-2.42-.04-3.64-.05-1.67-.01-3.34-.04-5-.06-4.13-.07-8.25-.18-12.37-.34-2.73-.11-5.47-.21-8.19-.36a530.215 530.215 0 0 1-24-1.88c-.9-.09-1.64.68-1.52 1.58.31 2.24.58 4.48.87 6.73.29 2.2.61 4.38.87 6.58.16 1.39 1.25 2.49 2.64 2.62 1.66.16 3.32.31 4.99.45 5.77.49 11.56.92 17.38 1.22 2.5.13 5.02.21 7.54.31.05 2.74.09 5.48.1 8.23 0 .71.03 1.41.03 2.12 0 7.29-.18 14.53-.48 21.75-.38 9.03-.96 18-1.77 26.91-.34 3.77-.73 7.52-1.15 11.26-.09.81.52 1.52 1.33 1.56 5.73.24 11.49.38 17.31.44.78.01 1.42-.63 1.42-1.41v-70.5h7.44v70.47c0 .78.64 1.41 1.42 1.41 5.79-.06 11.56-.2 17.31-.44a1.4 1.4 0 0 0 1.33-1.56c-.42-3.74-.81-7.5-1.15-11.26-.81-8.91-1.39-17.88-1.77-26.91-.3-7.21-.48-14.46-.48-21.74 0-.71.02-1.41.03-2.12.01-2.75.05-5.49.1-8.23 2.46-.09 4.92-.17 7.38-.3 5.82-.3 11.61-.73 17.38-1.22 1.74-.15 3.48-.31 5.22-.47 1.26-.12 2.24-1.12 2.39-2.37.26-2.28.6-4.54.9-6.81.29-2.24.57-4.49.87-6.73.12-.9-.62-1.67-1.52-1.58-2.19.22-4.36.43-6.54.62z" fill="#ffffff" data-color="1"></path>
        <path d="M544.28 72.33c0 20.54-12.72 31.19-31.57 31.19h-20.28V42.88h20.28c18.8 0 31.57 8.91 31.57 29.45zm-32.73-16.74h-4.99v35.16h4.99c11.84 0 17.66-7.43 17.72-18.42.06-11-5.88-16.74-17.72-16.74z" fill="#ffffff" data-color="1"></path>
        <path d="M171.47 81.1h-6.58v22.42h-14.13V42.88h25.06c12.86 0 20.81 6.13 20.81 18.87 0 8-3.89 14.36-10.79 17.4l13.34 24.36h-16.73L171.47 81.1zm-6.58-11.43h9.43c4.42 0 7.49-2.42 7.49-7.12 0-4.72-3.12-6.9-7.55-6.9h-9.37v14.02z" fill="#ffffff" data-color="1"></path>
        <path d="M300.34 72.33c0 20.54-12.72 31.19-31.57 31.19H248.5V42.88h20.28c18.79 0 31.56 8.91 31.56 29.45zm-32.72-16.74h-4.99v35.16h4.99c11.84 0 17.66-7.43 17.72-18.42.05-11-5.89-16.74-17.72-16.74z" fill="#ffffff" data-color="1"></path>
        <path d="M413.9 91.95h-18.22l-2.91 11.57h-13.95l17.56-60.64h16.55l19.12 60.64H417.2l-3.3-11.57zm-3.25-11.43l-6.41-22.56-5.68 22.56h12.09z" fill="#ffffff" data-color="1"></path>
        <path d="M484.76 42.88v60.64h-13.33l-21.2-34.09v34.09h-13.07V42.88h13.15l21.38 34.64V42.88h13.07z" fill="#ffffff" data-color="1"></path>
        <path d="M549.4 42.88h14.19v47.87h22.27v12.77H549.4V42.88z" fill="#ffffff" data-color="1"></path>
        <path d="M216.36 55.55v11.03h20.58v11.37h-20.58v12.82h27.02v12.77h-41.21V42.9h41.21v12.65h-27.02z" fill="#ffffff" data-color="1"></path>
        <path d="M605.17 55.55v11.03h20.58v11.37h-20.58v12.82h27.02v12.77h-41.21V42.9h41.21v12.65h-27.02z" fill="#ffffff" data-color="1"></path>
        <path d="M367.5 90.75h-4.99c-11.84 0-17.66-7.43-17.72-18.42-.06-11 5.88-16.73 17.72-16.73h10.94V42.88h-12.1c-18.8 0-31.57 8.9-31.57 29.44s12.72 31.19 31.57 31.19h8.39l3.7-12.77h-5.94z" fill="#ffffff" data-color="1"></path>
        <path d="M158.88 137.4c-2.29 6.04-5.46 9.05-5.46 9.05l2.53 1.83s3.3-2.9 5.67-9.43l-2.74-1.45z" fill="#ffffff" data-color="1"></path>
        <path d="M177.69 139.7s3.58 4.69 5.17 8.9l3.02-1.87c-1.04-3.45-5.31-8.76-5.31-8.76l-2.88 1.73z" fill="#ffffff" data-color="1"></path>
        <path d="M171.8 132.37v-4.31h9.98v-2.73h-9.98v-5.02h-3.59v5.02h-9.92v2.73h9.92v4.31H154v2.73h10.38c.05 3.96-.19 6.46-.47 7.61-.38 1.72-1.2 3.26-2.44 4.6-1.34 1.53-2.78 2.63-4.31 3.3l2.15 2.87 2.01-1.29c1.63-1.24 3.4-3.19 4.11-4.24.63-.76 1.5-2.58 1.78-4.8.2-1.56.44-4.21.44-8.04h4.87v14.21c0 .19-.05.34-.14.43-.1.1-.19.14-.29.14h-2.7v3.3h.55c2.8 0 4.97.13 5.48-.59.48-.58.39-2.12.41-3v-14.5h10.63v-2.73H171.8z" fill="#ffffff" data-color="1"></path>
        <path d="M218.42 136.85s1.07-3.75.68-8.51l-2.73-.04c.67 4.4-.56 8.07-.56 8.07l2.61.48z" fill="#ffffff" data-color="1"></path>
        <path fill="#ffffff" d="M239.77 146.93l-2.68.37 2.68-.37z" data-color="1"></path>
        <path fill="#ffffff" d="M234.22 147.69l-6.17.84 6.17-.84z" data-color="1"></path>
        <path fill="#ffffff" d="M228.05 148.53l.66 2.5-.66-2.5z" data-color="1"></path>
        <path fill="#ffffff" d="M245.13 127.83v-3.88h-2.87 2.87v3.88z" data-color="1"></path>
        <path fill="#ffffff" d="M239.75 127.83v-3.88h-3.02 3.02v3.88z" data-color="1"></path>
        <path d="M229.05 137.73c.34-.24.71-.57 1.11-1-.4.43-.78.76-1.11 1z" fill="#ffffff" data-color="1"></path>
        <path d="M233.36 132.71c.57-.96 1-1.72 1.29-2.3h13.64v-9.05h-19.82v9.05h2.58s-.43 1.12-2.3 3.3c-2.01 2.17-3.93 3.42-3.93 3.42l2.06 2.32 1.58-1.29v7.32h2.73v-1h3.02v3.2l-6.17.84.66 2.5 12.4-1.81h.03l.72 1.2 2.13-1.08-2.89-4.34-1.87 1.07.52.87-2.68.37v-2.81h5.74v-6.75h-5.74v-2.58h8.33c0 .41 0 .77-.01 1.17-.01 4.71-.11 8.61-.28 11.61-.1 1.63-.24 2.49-.43 2.58-.19.19-.48.29-.86.29h-1.65l.03 2.6c3.44 0 3.87.17 4.64-.3.67-.48 1.05-1 1.15-1.58.19-1.05.41-3.24.6-8.32l.12-10.49h-15.34zm8.9-4.88v-3.88h2.87v3.88h-2.87zm-5.53-3.88h3.02v3.88h-3.02v-3.88zm-5.53 0h3.02v3.88h-3.02v-3.88zm-2.15 13.78c.33-.24.71-.57 1.11-1 .41-.43.85-.96 1.33-1.58h2.73v2.58h-5.17zm5.17 4.6h-3.02v-2.3h3.01v2.3zm2.87-2.3h2.87v2.3h-2.87v-2.3z" fill="#ffffff" data-color="1"></path>
        <path fill="#ffffff" d="M234.22 127.83h-3.02v-3.88 3.88h3.02z" data-color="1"></path>
        <path fill="#ffffff" d="M239.75 127.83h-3.02v-3.88 3.88h3.02z" data-color="1"></path>
        <path d="M228.48 129.12v-1.01l-1.49-1.72-2.76 2.28c.1-5.04-.32-8.31-.32-8.31h-3.16c1.81 19.67-4.31 31.16-4.31 31.16l2.96 1.73c1.19-2.85 2.08-5.73 2.77-8.53.62 1.17 1.27 2.7 1.67 4.57l2.69-.69c-1.16-4.03-3.09-6.93-3.55-7.58.55-2.92.87-5.7 1.06-8.22v.2l4.44-3.88z" fill="#ffffff" data-color="1"></path>
        <path d="M285.08 126.98s-3.2-3.8-7.14-5.87l-2.14 2.78s2.4 3.01 7.64 5.32l1.64-2.23z" fill="#ffffff" data-color="1"></path>
        <path d="M295 150.06c-1.54-.2-2.88-.53-4.03-1.01-1.34-.48-2.88-1.34-4.6-2.59v-13.68h-7.34v3.31h3.88v11.22l-4.46 3.18 1.87 3.17c3.55-2.59 5.37-3.94 5.47-4.03 1.63 1.15 3.55 2.06 5.76 2.74 1.92.57 4.46.86 7.63.86h13.2v-2.94c-1.58 0-14.95.09-17.38-.23z" fill="#ffffff" data-color="1"></path>
        <path d="M295.2 132.78l-1.78.01v-4.32h4.75v-3.02h-3.6v-4.89h-3.46v4.89h-4.03v3.02h3.17c0 4.13-.24 7.39-.72 9.79-.48 2.21-1.44 4.7-2.42 6.61l2.88 1.73c.79-1.43 1.65-3.49 2.13-5.32.58-2.02.91-3.93 1.01-5.76h2.04c-.04 2.56-.12 5.23-.25 7.42-.1 1.63-.24 2.49-.43 2.58-.19.19-.48.29-.86.29h-1.65l.03 2.6c3.44 0 3.87.17 4.64-.3.67-.48 1.05-1 1.15-1.58.19-1.05.38-4.12.57-9.19l.09-4.55v-.01h-3.26z" fill="#ffffff" data-color="1"></path>
        <path d="M306.52 137.96v-1.44s3.36-2.99 4.89-4.51l-2.01-2.12h-8.29s.9-1.41 1.53-2.73h8.64v-2.59h-7.63s1.07-3.29 1.07-3.48l-3-.96c-.48 2.21-2.02 7.78-4.69 10.2l2.16 2.16s.43-.29 1.3-1.43v1.44h6.33c-.38.38-1.25 1.15-2.59 2.3h-.72v3.17h-4.27v2.73h4.27s.01.02.02.03h-.02v4.15c0 .18-.05.31-.13.39-.09.09-.18.13-.26.13h-1.97v3.02c2.56 0 4.55.12 5.02-.54.32-.39.36-1.25.37-2v-5.19h4.93v-2.73h-4.95z" fill="#ffffff" data-color="1"></path>
        <path d="M344.72 128.25h4.41v1.85h-3.23v2.02h3.23v1.67c0 1.76 1.35 1.85 3.13 1.85h5.48v-1.98c-2.31.02-2.73-.01-3.49-.01h-1.51c-.17 0-.31-.05-.4-.14-.1-.09-.14-.24-.14-.43v-.96h3.64v-2.02h-3.64v-1.85h4.62v2.56h3.27v-4.84h-7.82v-1.42h5.83v-2.13h-5.83v-2.13H349v5.69h-7.25l-.14 9.81c.12 9.72-.52 11.24-2.13 13.94l2.84 1.68c.88-1.68 2.11-4.14 2.28-10.21.02-1.63.12-5.94.12-12.95z" fill="#ffffff" data-color="1"></path>
        <path d="M370.17 127.53l2.56-1.56c-1.52-2.18-2.61-3.56-3.27-4.13l-2.13 1.57c.47.57 1.02 1.28 1.64 2.13.61.86 1.01 1.52 1.2 1.99z" fill="#ffffff" data-color="1"></path>
        <path fill="#ffffff" d="M359.79 136.63v2.13h-14.36v-2.13h14.36z" data-color="1"></path>
        <path d="M370.69 149.18c-.75.01-1.03-.32-1.23-.6-.66-.95-1.23-2.18-1.71-3.7 1.04-1.42 2.7-4.31 4.98-8.67l-2.7-1.42c-1.49 3.07-2.52 4.83-2.99 5.68-.19-2.08-.28-4.74-.28-7.96h6.26v-2.99h-6.26l.14-9.24h-3.27v9.24h-2.99v2.99h2.99c.09 4.46.43 8.3 1 11.52-1.52 1.99-3.04 3.7-4.55 5.12l-.5-1.95c-.85.19-1.63.38-3.34.67l.71-1.85h1.99v-5.97H346v5.97h1.57l1.14 2.99-4.55.57.71 2.85c5.31-.76 10.14-1.66 14.51-2.7-.86.66-1.38 1.04-2.04 1.52l2.56 2.28c1.51-1.23 2.46-2.09 3.32-2.94.76-.93 1.64-1.85 2.42-2.85 1.71 3.6 3.16 4.7 4.68 4.7.19 0 .53.07 4.09 0v-3.21l-3.72-.05zm-17.3-.74l-1.99.28-.99-2.7h3.84l-.86 2.42zm2.42-4.55h-6.83v-1.71h6.83v1.71z" fill="#ffffff" data-color="1"></path>
    </g>
</svg>